<?xml version="1.0" encoding="UTF-8" standalone="no"?><!DOCTYPE svg PUBLIC "-//W3C//DTD SVG 1.1//EN" "http://www.w3.org/Graphics/SVG/1.1/DTD/svg11.dtd"><svg width="100%" height="100%" viewBox="0 0 512 512" version="1.1" xmlns="http://www.w3.org/2000/svg" xmlns:xlink="http://www.w3.org/1999/xlink" xml:space="preserve" xmlns:serif="http://www.serif.com/" style="fill-rule:evenodd;clip-rule:evenodd;stroke-linecap:round;stroke-linejoin:round;"><rect id="_512-favicon" serif:id="512-favicon" x="0" y="0" width="512" height="512" style="fill:none;"/><path d="M512,256C512,397.29 397.29,512 256,512C114.71,512 0,397.29 0,256C0,114.71 114.71,0 256,0C397.29,0 512,114.71 512,256Z" style="fill:url(#_Linear1);"/><path d="M223.876,400.556C238.347,351.277 257.86,299.813 283.125,254.105C288.874,243.707 303.435,243.707 309.184,254.105C334.449,299.813 353.962,351.277 368.432,400.556M245.56,352.371L346.749,352.371M111.444,175.691L191.753,175.691M191.753,175.691L239.938,175.691M191.753,175.691L191.753,143.568M239.938,175.691L272.062,175.691M239.938,175.691C239.938,214.08 222.734,252.47 191.753,284.005M191.753,284.005C170.885,305.247 143.766,323.381 111.444,336.309M191.753,284.005C173.873,265.806 160.582,245.324 152.539,223.876M191.753,284.005C207.813,300.355 226.262,314.792 249.25,326.502M352.371,111.444L354.444,117.518C360.874,136.342 375.659,151.127 394.483,157.555L400.556,159.629L394.483,161.703C375.659,168.132 360.874,182.917 354.444,201.741L352.371,207.815L350.297,201.741C343.868,182.917 329.083,168.132 310.258,161.703L304.185,159.629L310.258,157.555C329.083,151.127 343.868,136.342 350.297,117.518L352.371,111.444Z" style="fill:none;fill-rule:nonzero;stroke:#fff;stroke-width:24.09px;"/><defs><linearGradient id="_Linear1" x1="0" y1="0" x2="1" y2="0" gradientUnits="userSpaceOnUse" gradientTransform="matrix(-512,-512,512,-512,512,512)"><stop offset="0" style="stop-color:#ffb24a;stop-opacity:1"/><stop offset="1" style="stop-color:#ff4f1f;stop-opacity:1"/></linearGradient></defs></svg>