<?xml version="1.0" encoding="UTF-8" standalone="no"?><!DOCTYPE svg PUBLIC "-//W3C//DTD SVG 1.1//EN" "http://www.w3.org/Graphics/SVG/1.1/DTD/svg11.dtd"><svg width="100%" height="100%" viewBox="0 0 64 64" version="1.1" xmlns="http://www.w3.org/2000/svg" xmlns:xlink="http://www.w3.org/1999/xlink" xml:space="preserve" xmlns:serif="http://www.serif.com/" style="fill-rule:evenodd;clip-rule:evenodd;stroke-linecap:round;stroke-linejoin:round;"><rect id="Favicon" x="0" y="0" width="64" height="64" style="fill:none;"/><clipPath id="_clip1"><rect x="0" y="0" width="64" height="64"/></clipPath><g clip-path="url(#_clip1)"><path d="M62,17.072L62,46.928C62,55.246 55.246,62 46.928,62L17.072,62C8.754,62 2,55.246 2,46.928L2,17.072C2,8.754 8.754,2 17.072,2L46.928,2C55.246,2 62,8.754 62,17.072Z" style="fill:url(#_Linear2);"/><path d="M64,17.072L64,46.928C64,56.35 56.35,64 46.928,64L17.072,64C7.65,64 0,56.35 0,46.928L0,17.072C0,7.65 7.65,-0 17.072,-0L46.928,-0C56.35,-0 64,7.65 64,17.072ZM62,17.072C62,8.754 55.246,2 46.928,2L17.072,2C8.754,2 2,8.754 2,17.072L2,46.928C2,55.246 8.754,62 17.072,62L46.928,62C55.246,62 62,55.246 62,46.928L62,17.072Z" style="fill:#fff;"/><path d="M26.805,55.377C29.145,47.408 32.301,39.085 36.387,31.694C37.316,30.012 39.671,30.012 40.601,31.694C44.686,39.085 47.842,47.408 50.182,55.377M30.312,47.585L46.676,47.585M8.623,19.013L21.61,19.013M21.61,19.013L29.403,19.013M21.61,19.013L21.61,13.818M29.403,19.013L34.597,19.013M29.403,19.013C29.403,25.221 26.62,31.429 21.61,36.529M21.61,36.529C18.236,39.964 13.85,42.897 8.623,44.987M21.61,36.529C18.719,33.586 16.569,30.274 15.269,26.805M21.61,36.529C24.207,39.173 27.191,41.508 30.908,43.401M47.585,8.623L47.92,9.605C48.96,12.649 51.351,15.04 54.395,16.08L55.377,16.415L54.395,16.751C51.351,17.79 48.96,20.181 47.92,23.225L47.585,24.208L47.249,23.225C46.21,20.181 43.819,17.79 40.774,16.751L39.792,16.415L40.774,16.08C43.819,15.04 46.21,12.649 47.249,9.605L47.585,8.623Z" style="fill:none;fill-rule:nonzero;stroke:#fff;stroke-width:3.9px;"/></g><defs><linearGradient id="_Linear2" x1="0" y1="0" x2="1" y2="0" gradientUnits="userSpaceOnUse" gradientTransform="matrix(-60,-60,60,-60,62,62)"><stop offset="0" style="stop-color:#ffb24a;stop-opacity:1"/><stop offset="1" style="stop-color:#ff4f1f;stop-opacity:1"/></linearGradient></defs></svg>